<?xml version="1.0" encoding="utf-8"?>
<!-- Generator: Adobe Illustrator 22.0.1, SVG Export Plug-In . SVG Version: 6.00 Build 0)  -->
<svg version="1.1" id="Capa_1" xmlns="http://www.w3.org/2000/svg" xmlns:xlink="http://www.w3.org/1999/xlink" x="0px" y="0px"
	 viewBox="0 0 135 35" style="enable-background:new 0 0 135 35;" xml:space="preserve">
<style type="text/css">
	.st0{fill:#272425;}
	.st1{fill:#C12A21;}
</style>
<path class="st0" d="M43.2,12.7c-0.4-1.4-0.9-2.7-1.8-3.8c-0.8-1.1-1.9-2-3.1-2.7c-1.3-0.7-2.8-1-4.5-1c-1.5,0-2.9,0.3-4.2,0.8
	c-1.2,0.5-2.3,1.3-3.2,2.2c-0.9,0.9-1.6,2.1-2.1,3.4c-0.5,1.3-0.7,2.7-0.7,4.2c0,1.5,0.2,2.9,0.7,4.2c0.5,1.3,1.2,2.4,2,3.3
	c0.9,0.9,2,1.7,3.2,2.2c1.3,0.5,2.7,0.8,4.2,0.8c2.2,0,4.2-0.5,5.8-1.6c0.8-0.5,1.5-1.2,2.1-2.1c0.6-0.9,1.1-1.9,1.5-3.1l0.1-0.4
	c0,0,0.1-0.2-0.1-0.2h-5.1c-0.3,0-0.3,0.2-0.3,0.2l0,0.2c-0.1,0.2-0.2,0.5-0.4,0.7c-0.2,0.2-0.5,0.5-0.8,0.7
	c-0.7,0.5-1.5,0.7-2.5,0.7c-0.7,0-1.3-0.1-1.8-0.3c-0.5-0.2-0.9-0.4-1.3-0.7c-0.3-0.3-0.6-0.8-0.8-1.3c-0.2-0.5-0.3-1-0.3-1.6h13.5
	c0.2,0,0.2-0.2,0.2-0.2l0-0.2c0-0.3,0-0.7,0-1C43.6,15,43.5,13.8,43.2,12.7 M30.6,11.5c0.3-0.4,0.7-0.7,1.2-0.9
	c0.5-0.2,1.1-0.4,1.9-0.4c0.6,0,1.1,0.1,1.5,0.2c0.4,0.2,0.7,0.4,1,0.7c0.5,0.5,0.8,1.3,1.1,2.3h-7.5c0-0.2,0.1-0.4,0.2-0.7
	C30.1,12.2,30.3,11.8,30.6,11.5"/>
<path class="st0" d="M62.8,25.7l-7.3-10.5l6.6-9.3c0,0,0.1-0.1-0.1-0.1h-6.6c-0.2,0-0.3,0.1-0.3,0.1l-3,4.5l-3-4.4
	c0,0-0.1-0.1-0.3-0.1h-6.8c-0.2,0-0.1,0.1-0.1,0.1l0.5,0.7l6.1,8.8l-7.1,10.4c0,0-0.1,0.2,0.1,0.2H48c0.3,0,0.4-0.2,0.4-0.2l3.6-5.4
	l3.6,5.4c0,0,0.1,0.2,0.4,0.2h6.8C62.9,25.9,62.8,25.7,62.8,25.7"/>
<path class="st0" d="M71.2,5.7h-7.7c-0.3,0-0.2,0.2-0.2,0.2l1.1,19.7c0,0,0,0.2,0.2,0.2H70c0.2,0,0.2-0.3,0.2-0.3L71.4,6
	C71.4,6,71.4,5.7,71.2,5.7"/>
<path class="st0" d="M85.8,10.3c0,0,0.2,0,0.2-0.2V6c0,0,0-0.2-0.2-0.2h-3.6V0.2c0,0,0-0.2-0.2-0.2h-5.8c-0.2,0-0.2,0.2-0.2,0.2v5.5
	h-2.9c-0.3,0-0.2,0.2-0.2,0.2V10c0,0,0,0.2,0.2,0.2h3v10.8c0,1,0.2,1.9,0.5,2.6c0.4,0.7,0.9,1.2,1.5,1.6c0.6,0.4,1.3,0.6,2.1,0.7
	c0.8,0.1,1.6,0.2,2.4,0.2c0.5,0,1.1,0,1.6,0c0.6,0,1.1-0.1,1.5-0.1l0.2,0c0,0,0.2,0,0.2-0.3v-4.7c0-0.2-0.2-0.2-0.2-0.2l-0.4,0.1
	c-0.2,0-0.5,0.1-0.7,0.1c-0.3,0-0.5,0-0.8,0c-0.4,0-0.8,0-1-0.1c-0.2-0.1-0.4-0.1-0.4-0.2c-0.1-0.1-0.1-0.2-0.2-0.4
	c-0.1-0.2-0.1-0.6-0.1-1v-9H85.8z"/>
<path class="st0" d="M106.4,11.5c-0.5-1.3-1.2-2.4-2.1-3.4c-0.9-0.9-2-1.7-3.3-2.2c-1.3-0.5-2.7-0.8-4.3-0.8c-1.6,0-3,0.2-4.3,0.8
	c-1.3,0.5-2.4,1.2-3.3,2.2c-0.9,0.9-1.6,2.1-2.1,3.4c-0.5,1.3-0.7,2.8-0.7,4.3c0,1.6,0.2,3,0.7,4.3c0.5,1.3,1.2,2.4,2.1,3.3
	c0.9,0.9,2,1.6,3.3,2.1c1.3,0.5,2.7,0.7,4.3,0.7c1.6,0,3-0.2,4.3-0.7c1.3-0.5,2.4-1.2,3.3-2.1c0.9-0.9,1.6-2,2.1-3.3
	c0.5-1.3,0.7-2.7,0.7-4.3C107.2,14.3,106.9,12.8,106.4,11.5 M98.7,21c-0.5,0.3-1.2,0.5-2,0.5c-0.8,0-1.5-0.2-2-0.4
	c-0.5-0.3-0.9-0.7-1.3-1.2c-0.3-0.5-0.6-1.1-0.7-1.8c-0.1-0.7-0.2-1.4-0.2-2.1c0-0.7,0.1-1.5,0.2-2.2c0.1-0.7,0.4-1.3,0.7-1.8
	c0.3-0.5,0.7-0.9,1.3-1.2c0.5-0.3,1.1-0.5,2-0.5c0.8,0,1.5,0.2,2,0.5c0.5,0.3,1,0.7,1.3,1.2c0.3,0.5,0.6,1.1,0.7,1.8
	c0.1,0.7,0.2,1.4,0.2,2.2c0,0.7-0.1,1.4-0.2,2.1c-0.1,0.7-0.4,1.3-0.7,1.8C99.7,20.3,99.3,20.7,98.7,21"/>
<path class="st1" d="M71.1,30.7c0-2.1-1.7-3.8-3.8-3.8c-2.1,0-3.8,1.7-3.8,3.8c0,2.1,1.7,3.8,3.8,3.8C69.4,34.5,71.1,32.8,71.1,30.7
	"/>
<path class="st0" d="M34.6,0.2l-2.9,3.7c0,0-0.2,0.2,0.1,0.2h3.5c0.3,0,0.4-0.1,0.4-0.1l4.9-3.8c0,0,0.2-0.2-0.1-0.2h-5.6
	C34.7,0,34.6,0.2,34.6,0.2"/>
<path class="st0" d="M112.1,7.7c0,0.4-0.1,0.9-0.3,1.2c-0.2,0.4-0.5,0.7-0.9,0.9c-0.4,0.2-0.8,0.3-1.2,0.3c-0.4,0-0.8-0.1-1.2-0.3
	c-0.4-0.2-0.7-0.5-0.9-0.9c-0.2-0.4-0.3-0.8-0.3-1.2c0-0.4,0.1-0.8,0.3-1.2c0.2-0.4,0.5-0.7,0.9-0.9c0.4-0.2,0.8-0.3,1.2-0.3
	c0.4,0,0.8,0.1,1.2,0.3c0.4,0.2,0.7,0.5,0.9,0.9C111.9,6.9,112.1,7.3,112.1,7.7 M111.6,7.7c0-0.6-0.2-1-0.6-1.4
	c-0.4-0.4-0.9-0.6-1.4-0.6c-0.5,0-1,0.2-1.4,0.6c-0.4,0.4-0.6,0.9-0.6,1.4c0,0.5,0.2,1,0.6,1.4c0.4,0.4,0.9,0.6,1.4,0.6
	c0.5,0,1-0.2,1.4-0.6C111.4,8.7,111.6,8.3,111.6,7.7 M108.5,6.4h1.2c0.3,0,0.6,0.1,0.7,0.2c0.2,0.1,0.2,0.3,0.2,0.5
	c0,0.2-0.1,0.3-0.2,0.5c-0.1,0.1-0.3,0.2-0.5,0.3c0.1,0,0.2,0.1,0.2,0.1c0.1,0.1,0.1,0.2,0.2,0.3c0,0,0.1,0.3,0.4,0.8H110
	c-0.3-0.5-0.4-0.8-0.5-0.9C109.4,8,109.3,8,109.2,8c0,0,0,0-0.1,0v1h-0.7V6.4z M109.1,7.5h0.3c0.2,0,0.3,0,0.4-0.1
	c0.1-0.1,0.1-0.1,0.1-0.2c0-0.1,0-0.2-0.1-0.2c-0.1-0.1-0.2-0.1-0.4-0.1h-0.3V7.5z"/>
</svg>
